M48
; DRILL file {KiCad 9.0.8+1} date 2026-05-04T22:48:54+0200
; FORMAT={-:-/ absolute / metric / decimal}
; #@! TF.CreationDate,2026-05-04T22:48:54+02:00
; #@! TF.GenerationSoftware,Kicad,Pcbnew,9.0.8+1
; #@! TF.FileFunction,Plated,1,2,PTH
FMAT,2
METRIC
; #@! TA.AperFunction,Plated,PTH,ViaDrill
T1C0.300
; #@! TA.AperFunction,Plated,PTH,ComponentDrill
T2C0.800
; #@! TA.AperFunction,Plated,PTH,ComponentDrill
T3C0.900
; #@! TA.AperFunction,Plated,PTH,ComponentDrill
T4C1.000
; #@! TA.AperFunction,Plated,PTH,ComponentDrill
T5C2.700
%
G90
G05
T1
X101.21Y-108.71
X101.23Y-107.99
X101.34Y-129.16
X101.34Y-129.96
X101.34Y-130.69
X101.43Y-139.27
X101.44Y-138.55
X101.72Y-104.06
X101.99Y-107.98
X102.16Y-139.27
X102.18Y-138.55
X102.86Y-129.16
X102.87Y-129.92
X102.87Y-130.66
X102.92Y-100.85
X102.92Y-139.27
X102.94Y-138.54
X103.26Y-109.97
X103.28Y-109.25
X104.04Y-109.24
X104.17Y-104.48
X104.32Y-117.5
X104.33Y-116.78
X105.05Y-117.5
X105.07Y-116.78
X105.81Y-117.5
X105.83Y-116.77
X106.65Y-104.38
X106.84Y-119.85
X106.99Y-130.11
X107.0Y-132.19
X107.03Y-129.22
X107.04Y-131.04
X108.03Y-100.801
X108.059Y-136.5
X108.17Y-112.68
X108.9Y-112.15
X110.98Y-120.28
X112.01Y-120.29
X112.93Y-142.61
X112.94Y-141.89
X113.07Y-120.32
X113.59Y-118.04
X113.6Y-117.32
X113.66Y-142.61
X113.68Y-141.89
X114.32Y-118.04
X114.34Y-117.32
X114.42Y-142.61
X114.44Y-141.88
X114.6Y-135.95
X114.61Y-135.23
X115.08Y-118.04
X115.1Y-117.31
X115.33Y-135.95
X115.35Y-135.23
X115.47Y-115.04
X115.71Y-123.51
X116.09Y-135.95
X116.11Y-135.22
X119.06Y-142.65
X119.07Y-141.93
X119.16Y-134.55
X119.18Y-133.83
X119.79Y-142.65
X119.81Y-141.93
X119.92Y-134.55
X119.94Y-133.82
X120.55Y-142.65
X120.57Y-141.92
X120.66Y-104.8
X121.18Y-108.95
X121.19Y-112.72
X121.63Y-121.15
X121.71Y-117.13
X121.95Y-113.42
X123.3Y-107.75
X124.33Y-123.99
X124.34Y-123.27
X125.06Y-123.99
X125.08Y-123.27
X125.66Y-142.72
X125.67Y-142.0
X125.82Y-123.99
X125.84Y-123.26
X126.24Y-108.64
X126.25Y-107.92
X126.39Y-142.72
X126.41Y-142.0
X126.54Y-102.61
X126.55Y-101.89
X126.97Y-108.64
X126.99Y-107.92
X127.15Y-142.72
X127.17Y-141.99
X127.27Y-102.61
X127.29Y-101.89
X127.73Y-108.64
X127.75Y-107.91
X127.8Y-115.95
X128.02Y-114.74
X128.11Y-104.17
X128.12Y-103.45
X128.2Y-112.64
X128.84Y-104.17
X128.86Y-103.45
X128.96Y-106.67
X128.97Y-105.95
X129.29Y-121.66
X129.3Y-120.94
X129.6Y-104.17
X129.62Y-103.44
X129.69Y-106.67
X129.71Y-105.95
X130.02Y-121.66
X130.04Y-120.94
X130.57Y-115.62
X130.65Y-110.7
X130.78Y-121.66
X130.8Y-120.93
X131.32Y-115.61
X131.41Y-109.92
X131.43Y-110.64
X131.89Y-112.7
X134.58Y-100.801
X136.64Y-125.64
X137.03Y-112.97
X137.48Y-125.67
X138.36Y-106.16
X138.39Y-105.34
X138.44Y-113.32
X139.5Y-112.26
X141.31Y-130.44
X141.37Y-135.3
X141.38Y-134.38
X141.39Y-133.45
X141.47Y-127.43
X141.51Y-106.27
X141.52Y-128.35
X142.11Y-130.47
X143.51Y-118.27
X143.78Y-128.76
X143.81Y-127.94
X144.27Y-134.77
X144.28Y-134.05
X145.0Y-134.77
X145.02Y-134.05
X145.15Y-106.5
X145.79Y-142.99
X145.8Y-142.27
X146.52Y-142.99
X146.54Y-142.27
X147.28Y-142.99
X147.3Y-142.26
X147.35Y-112.62
X147.985Y-105.695
X148.09Y-112.62
X148.9Y-113.98
X148.98Y-100.801
X149.0Y-107.06
X149.48Y-102.386
X149.48Y-146.6
X149.7Y-116.3
X150.07Y-112.62
X150.22Y-146.6
X150.44Y-116.3
X151.2Y-116.29
X151.46Y-107.03
X151.89Y-118.64
X151.9Y-117.92
X152.51Y-144.0
X152.52Y-143.28
X152.62Y-118.64
X152.64Y-117.92
X152.75Y-139.2
X152.76Y-138.48
X153.04Y-111.38
X153.24Y-144.0
X153.26Y-143.28
X153.38Y-118.64
X153.4Y-117.91
X153.48Y-139.2
X153.5Y-138.48
X154.0Y-144.0
X154.02Y-143.27
X154.16Y-110.52
X154.17Y-121.39
X154.24Y-139.2
X154.26Y-138.47
X154.69Y-113.97
X154.7Y-113.25
X155.06Y-108.4
X155.06Y-121.43
X155.42Y-113.97
X155.44Y-113.25
X155.82Y-108.41
X156.12Y-121.45
X156.18Y-113.97
X156.2Y-113.24
X156.22Y-103.62
X156.23Y-102.9
X156.95Y-103.62
X156.97Y-102.9
X156.99Y-139.21
X157.0Y-138.49
X157.325Y-106.61
X157.71Y-103.62
X157.72Y-139.21
X157.73Y-102.89
X157.74Y-138.49
X158.48Y-139.21
X158.5Y-138.48
X159.04Y-136.99
X159.05Y-136.27
X159.77Y-136.99
X159.79Y-136.27
X160.28Y-131.92
X160.29Y-131.2
X160.31Y-121.08
X160.32Y-120.36
X160.32Y-123.4
X160.32Y-126.02
X160.33Y-122.68
X160.33Y-125.3
X160.53Y-136.99
X160.55Y-136.26
X160.56Y-118.75
X160.57Y-118.03
X160.73Y-115.55
X160.74Y-114.83
X160.75Y-107.54
X161.01Y-131.92
X161.03Y-131.2
X161.04Y-121.08
X161.04Y-128.57
X161.05Y-123.4
X161.05Y-126.02
X161.06Y-120.36
X161.06Y-127.85
X161.07Y-122.68
X161.07Y-125.3
X161.29Y-118.75
X161.31Y-118.03
X161.46Y-115.55
X161.48Y-114.83
X161.77Y-131.92
X161.79Y-131.19
X161.8Y-121.08
X161.81Y-123.4
X161.81Y-126.02
X161.82Y-103.42
X161.82Y-120.35
X161.83Y-102.7
X161.83Y-122.67
X161.83Y-125.29
X161.84Y-128.6
X161.86Y-127.81
X162.05Y-118.75
X162.07Y-118.02
X162.22Y-115.55
X162.24Y-114.82
X162.33Y-144.47
X162.34Y-143.75
X162.55Y-103.42
X162.57Y-102.7
X163.06Y-144.47
X163.08Y-143.75
X163.31Y-103.42
X163.33Y-102.69
X163.82Y-144.47
X163.84Y-143.74
X167.97Y-146.86
X168.87Y-116.64
X168.89Y-143.15
X168.9Y-142.43
X169.42Y-116.03
X169.62Y-143.15
X169.64Y-142.43
X169.86Y-102.52
X169.86Y-146.86
X170.01Y-115.4
X170.07Y-122.98
X170.12Y-122.29
X170.38Y-143.15
X170.4Y-142.42
X170.61Y-114.68
X170.88Y-122.3
X171.18Y-114.01
X171.2Y-146.85
X172.43Y-129.08
X172.44Y-128.36
X172.66Y-146.82
X172.77Y-118.76
X172.78Y-118.04
X173.16Y-129.08
X173.18Y-128.36
X173.5Y-118.76
X173.52Y-118.04
X173.64Y-103.87
X173.8Y-106.57
X173.81Y-107.41
X173.92Y-129.08
X173.94Y-128.35
X174.08Y-146.89
X174.26Y-118.76
X174.28Y-118.03
X174.89Y-133.33
X175.3Y-146.86
X176.04Y-109.8
X176.11Y-108.96
X176.3Y-101.88
X176.77Y-109.8
X176.9Y-109.0
X177.53Y-109.8
X177.74Y-102.83
X177.75Y-102.11
X178.47Y-102.83
X178.49Y-102.11
X178.84Y-146.75
X178.85Y-146.03
X179.23Y-102.83
X179.25Y-102.1
X179.57Y-146.75
X179.59Y-146.03
X180.33Y-146.75
X180.35Y-146.02
X180.57Y-133.54
X180.57Y-136.43
X180.58Y-131.1
X180.58Y-132.82
X180.58Y-135.71
X180.59Y-130.38
X181.13Y-115.92
X181.3Y-133.54
X181.3Y-136.43
X181.31Y-131.1
X181.32Y-112.91
X181.32Y-132.82
X181.32Y-135.71
X181.33Y-130.38
X181.88Y-113.69
X182.06Y-133.54
X182.06Y-136.43
X182.08Y-135.7
X182.09Y-130.37
X182.34Y-106.98
X182.35Y-106.26
X182.96Y-100.801
X183.07Y-106.98
X183.08Y-142.03
X183.09Y-106.26
X183.09Y-141.31
X183.61Y-131.59
X183.67Y-130.81
X183.81Y-142.03
X183.83Y-106.98
X183.83Y-141.31
X183.85Y-106.25
X184.57Y-142.03
X184.59Y-141.3
X184.69Y-116.96
X184.7Y-116.24
X184.83Y-148.89
X184.84Y-148.17
X185.42Y-116.96
X185.44Y-116.24
X185.54Y-109.42
X185.56Y-148.89
X185.58Y-148.17
X186.18Y-116.96
X186.2Y-116.23
X186.32Y-148.89
X186.34Y-148.16
X187.33Y-100.801
X188.08Y-135.18
X188.09Y-135.94
X188.09Y-136.68
X188.81Y-135.96
X188.81Y-136.69
T2
X138.92Y-146.5
X141.46Y-146.5
X144.0Y-146.5
X152.82Y-124.96
X155.32Y-124.96
X171.56Y-125.17
X173.8Y-143.21
X174.06Y-125.17
X176.34Y-145.75
X178.88Y-143.21
T3
X137.84Y-115.09
X140.38Y-115.09
X142.92Y-115.09
T4
X103.83Y-113.5
X105.0Y-122.3
X105.0Y-124.84
X105.0Y-127.38
X105.0Y-129.92
X105.0Y-132.46
X105.0Y-135.0
X105.776Y-111.867
X107.722Y-110.235
X107.813Y-115.788
X109.667Y-108.602
X109.758Y-114.155
X110.4Y-122.78
X111.613Y-106.969
X111.704Y-112.523
X112.94Y-122.78
X113.559Y-105.337
X113.65Y-110.89
X138.95Y-109.0
X141.49Y-109.0
X144.03Y-109.0
X145.65Y-113.11
X145.65Y-115.65
X145.65Y-118.19
X145.65Y-120.73
X145.65Y-123.27
X145.65Y-125.81
X145.65Y-128.35
X145.65Y-130.89
X146.57Y-109.0
X147.938Y-136.0
X149.11Y-109.0
X150.477Y-136.0
X151.65Y-109.0
X153.017Y-136.0
X153.27Y-130.89
X155.558Y-136.0
X155.81Y-130.89
X158.35Y-113.11
X158.35Y-115.65
X158.35Y-118.19
X158.35Y-120.73
X158.35Y-123.27
X158.35Y-125.81
X158.35Y-128.35
X158.35Y-130.89
X164.65Y-113.11
X164.65Y-115.65
X164.65Y-118.19
X164.65Y-120.73
X164.65Y-123.27
X164.65Y-125.81
X164.65Y-128.35
X164.65Y-130.89
X166.938Y-136.0
X169.477Y-136.0
X172.017Y-136.0
X172.27Y-130.89
X174.558Y-136.0
X174.81Y-130.89
X177.051Y-105.567
X177.35Y-113.11
X177.35Y-115.65
X177.35Y-118.19
X177.35Y-120.73
X177.35Y-123.27
X177.35Y-125.81
X177.35Y-128.35
X177.35Y-130.89
X178.997Y-107.199
X180.943Y-108.832
X181.19Y-117.85
X181.19Y-120.39
X181.19Y-122.93
X182.888Y-110.465
X184.834Y-112.097
X185.58Y-122.0
X185.58Y-124.54
X185.58Y-127.08
X185.58Y-129.62
X185.58Y-132.16
X185.58Y-134.7
X186.78Y-113.73
T5
X111.69Y-127.91
X111.69Y-132.91
M30
