%TF.GenerationSoftware,KiCad,Pcbnew,9.0.8+1*%
%TF.CreationDate,2026-05-04T22:48:44+02:00*%
%TF.ProjectId,WikiSumo_v26,57696b69-5375-46d6-9f5f-7632362e6b69,rev?*%
%TF.SameCoordinates,Original*%
%TF.FileFunction,Soldermask,Bot*%
%TF.FilePolarity,Negative*%
%FSLAX46Y46*%
G04 Gerber Fmt 4.6, Leading zero omitted, Abs format (unit mm)*
G04 Created by KiCad (PCBNEW 9.0.8+1) date 2026-05-04 22:48:44*
%MOMM*%
%LPD*%
G01*
G04 APERTURE LIST*
G04 Aperture macros list*
%AMRoundRect*
0 Rectangle with rounded corners*
0 $1 Rounding radius*
0 $2 $3 $4 $5 $6 $7 $8 $9 X,Y pos of 4 corners*
0 Add a 4 corners polygon primitive as box body*
4,1,4,$2,$3,$4,$5,$6,$7,$8,$9,$2,$3,0*
0 Add four circle primitives for the rounded corners*
1,1,$1+$1,$2,$3*
1,1,$1+$1,$4,$5*
1,1,$1+$1,$6,$7*
1,1,$1+$1,$8,$9*
0 Add four rect primitives between the rounded corners*
20,1,$1+$1,$2,$3,$4,$5,0*
20,1,$1+$1,$4,$5,$6,$7,0*
20,1,$1+$1,$6,$7,$8,$9,0*
20,1,$1+$1,$8,$9,$2,$3,0*%
%AMRotRect*
0 Rectangle, with rotation*
0 The origin of the aperture is its center*
0 $1 length*
0 $2 width*
0 $3 Rotation angle, in degrees counterclockwise*
0 Add horizontal line*
21,1,$1,$2,0,0,$3*%
G04 Aperture macros list end*
%ADD10RoundRect,0.102000X-0.754000X-0.754000X0.754000X-0.754000X0.754000X0.754000X-0.754000X0.754000X0*%
%ADD11C,1.712000*%
%ADD12R,1.700000X1.700000*%
%ADD13C,1.700000*%
%ADD14C,1.800000*%
%ADD15RoundRect,0.250000X0.650000X0.650000X-0.650000X0.650000X-0.650000X-0.650000X0.650000X-0.650000X0*%
%ADD16C,1.440000*%
%ADD17RoundRect,0.760000X1.140000X-1.140000X1.140000X1.140000X-1.140000X1.140000X-1.140000X-1.140000X0*%
%ADD18C,4.000000*%
%ADD19C,1.600000*%
%ADD20R,1.600000X1.600000*%
%ADD21RotRect,1.700000X1.700000X130.000000*%
%ADD22RotRect,1.700000X1.700000X50.000000*%
%ADD23RoundRect,0.197500X0.197500X0.632500X-0.197500X0.632500X-0.197500X-0.632500X0.197500X-0.632500X0*%
%ADD24R,1.575000X0.250000*%
%ADD25R,1.575000X0.275000*%
%ADD26R,0.250000X1.525000*%
%ADD27RoundRect,0.250000X-0.450000X0.350000X-0.450000X-0.350000X0.450000X-0.350000X0.450000X0.350000X0*%
%ADD28RoundRect,0.250000X0.450000X-0.350000X0.450000X0.350000X-0.450000X0.350000X-0.450000X-0.350000X0*%
%ADD29RoundRect,0.250000X0.350000X0.450000X-0.350000X0.450000X-0.350000X-0.450000X0.350000X-0.450000X0*%
%ADD30RoundRect,0.250000X0.337500X0.475000X-0.337500X0.475000X-0.337500X-0.475000X0.337500X-0.475000X0*%
%ADD31RoundRect,0.250000X-0.475000X0.337500X-0.475000X-0.337500X0.475000X-0.337500X0.475000X0.337500X0*%
G04 APERTURE END LIST*
D10*
%TO.C,U7*%
X164650000Y-113110000D03*
D11*
X164650000Y-115650000D03*
X164650000Y-118190000D03*
X164650000Y-120730000D03*
X164650000Y-123270000D03*
X164650000Y-125810000D03*
D10*
X164650000Y-128350000D03*
D11*
X164650000Y-130890000D03*
X177350000Y-113110000D03*
X177350000Y-115650000D03*
X177350000Y-118190000D03*
X177350000Y-120730000D03*
X177350000Y-123270000D03*
X177350000Y-125810000D03*
X177350000Y-128350000D03*
X177350000Y-130890000D03*
X172270000Y-130890000D03*
X174810000Y-130890000D03*
%TD*%
D12*
%TO.C,J10*%
X181190000Y-117850000D03*
D13*
X181190000Y-120390000D03*
X181190000Y-122930000D03*
%TD*%
D14*
%TO.C,U12*%
X142920000Y-115090000D03*
D15*
X140380000Y-115090000D03*
D14*
X137840000Y-115090000D03*
%TD*%
D13*
%TO.C,J8*%
X185580000Y-122000000D03*
D12*
X185580000Y-124540000D03*
D13*
X185580000Y-127080000D03*
X185580000Y-129620000D03*
X185580000Y-132160000D03*
X185580000Y-134700000D03*
%TD*%
D16*
%TO.C,RV1*%
X144000000Y-146500000D03*
X141460000Y-146500000D03*
X138920000Y-146500000D03*
%TD*%
D13*
%TO.C,J6*%
X174557500Y-136000000D03*
X172017500Y-136000000D03*
X169477500Y-136000000D03*
X166937500Y-136000000D03*
%TD*%
%TO.C,SW4*%
X112940000Y-122780000D03*
X110400000Y-122780000D03*
%TD*%
D17*
%TO.C,J4*%
X111690000Y-132910000D03*
D18*
X111690000Y-127910000D03*
%TD*%
D13*
%TO.C,J2*%
X138950000Y-109000000D03*
D12*
X141490000Y-109000000D03*
D13*
X144030000Y-109000000D03*
X146570000Y-109000000D03*
X149110000Y-109000000D03*
X151650000Y-109000000D03*
%TD*%
%TO.C,J7*%
X105000000Y-135000000D03*
D12*
X105000000Y-132460000D03*
D13*
X105000000Y-129920000D03*
X105000000Y-127380000D03*
X105000000Y-124840000D03*
X105000000Y-122300000D03*
%TD*%
D19*
%TO.C,C11*%
X171560000Y-125170000D03*
D20*
X174060000Y-125170000D03*
%TD*%
D21*
%TO.C,J9*%
X107812741Y-115788042D03*
D13*
X109758494Y-114155361D03*
X111704247Y-112522681D03*
X113650000Y-110890000D03*
%TD*%
D16*
%TO.C,RV2*%
X173800000Y-143210000D03*
X176340000Y-145750000D03*
X178880000Y-143210000D03*
%TD*%
D10*
%TO.C,U6*%
X145650000Y-113110000D03*
D11*
X145650000Y-115650000D03*
X145650000Y-118190000D03*
X145650000Y-120730000D03*
X145650000Y-123270000D03*
X145650000Y-125810000D03*
D10*
X145650000Y-128350000D03*
D11*
X145650000Y-130890000D03*
X158350000Y-113110000D03*
X158350000Y-115650000D03*
X158350000Y-118190000D03*
X158350000Y-120730000D03*
X158350000Y-123270000D03*
X158350000Y-125810000D03*
X158350000Y-128350000D03*
X158350000Y-130890000D03*
X153270000Y-130890000D03*
X155810000Y-130890000D03*
%TD*%
D13*
%TO.C,J1*%
X103830000Y-113500000D03*
D21*
X105775753Y-111867319D03*
D13*
X107721506Y-110234639D03*
X109667259Y-108601958D03*
X111613012Y-106969278D03*
X113558764Y-105336597D03*
%TD*%
D19*
%TO.C,C7*%
X152820000Y-124960000D03*
D20*
X155320000Y-124960000D03*
%TD*%
D13*
%TO.C,J5*%
X155557500Y-136000000D03*
X153017500Y-136000000D03*
X150477500Y-136000000D03*
X147937500Y-136000000D03*
%TD*%
%TO.C,J3*%
X177051236Y-105566597D03*
D22*
X178996989Y-107199278D03*
D13*
X180942742Y-108831958D03*
X182888495Y-110464639D03*
X184834248Y-112097319D03*
X186780000Y-113730000D03*
%TD*%
D23*
%TO.C,U11*%
X172900000Y-102580000D03*
X172900000Y-106580000D03*
X171100000Y-106580000D03*
X171100000Y-102580000D03*
%TD*%
D24*
%TO.C,U14*%
X140830000Y-122560000D03*
X140830000Y-123060000D03*
X140830000Y-123560000D03*
D25*
X140830000Y-124047500D03*
D26*
X139617500Y-124747500D03*
X139117500Y-124747500D03*
X138617500Y-124747500D03*
D24*
X137405000Y-124060000D03*
X137405000Y-123560000D03*
X137405000Y-123060000D03*
X137405000Y-122560000D03*
D26*
X138617500Y-121872500D03*
X139117500Y-121872500D03*
X139617500Y-121872500D03*
%TD*%
D27*
%TO.C,R3*%
X181540000Y-102880000D03*
X181540000Y-104880000D03*
%TD*%
D23*
%TO.C,U9*%
X154900000Y-102580000D03*
X154900000Y-106580000D03*
X153100000Y-106580000D03*
X153100000Y-102580000D03*
%TD*%
D28*
%TO.C,R2*%
X105500000Y-105390000D03*
X105500000Y-103390000D03*
%TD*%
D29*
%TO.C,R20*%
X137340000Y-119000000D03*
X135340000Y-119000000D03*
%TD*%
D27*
%TO.C,R1*%
X108450000Y-103390000D03*
X108450000Y-105390000D03*
%TD*%
D23*
%TO.C,U10*%
X136900000Y-102580000D03*
X136900000Y-106580000D03*
X135100000Y-106580000D03*
X135100000Y-102580000D03*
%TD*%
D28*
%TO.C,R9*%
X121910000Y-105900000D03*
X121910000Y-103900000D03*
%TD*%
D27*
%TO.C,R15*%
X168420000Y-103840000D03*
X168420000Y-105840000D03*
%TD*%
D28*
%TO.C,R13*%
X139870000Y-105350000D03*
X139870000Y-103350000D03*
%TD*%
D23*
%TO.C,U3*%
X102900000Y-102580000D03*
X102900000Y-106580000D03*
X101100000Y-106580000D03*
X101100000Y-102580000D03*
%TD*%
D27*
%TO.C,R14*%
X165470000Y-103840000D03*
X165470000Y-105840000D03*
%TD*%
D23*
%TO.C,U8*%
X118900000Y-102580000D03*
X118900000Y-106580000D03*
X117100000Y-106580000D03*
X117100000Y-102580000D03*
%TD*%
D29*
%TO.C,R19*%
X141760000Y-118990000D03*
X139760000Y-118990000D03*
%TD*%
D27*
%TO.C,R8*%
X124860000Y-103900000D03*
X124860000Y-105900000D03*
%TD*%
D23*
%TO.C,U4*%
X188900000Y-102580000D03*
X188900000Y-106580000D03*
X187100000Y-106580000D03*
X187100000Y-102580000D03*
%TD*%
D30*
%TO.C,C5*%
X140175000Y-127370000D03*
X138100000Y-127370000D03*
%TD*%
D27*
%TO.C,R10*%
X146770000Y-103790000D03*
X146770000Y-105790000D03*
%TD*%
D28*
%TO.C,R4*%
X184490000Y-104880000D03*
X184490000Y-102880000D03*
%TD*%
D27*
%TO.C,R12*%
X142820000Y-103350000D03*
X142820000Y-105350000D03*
%TD*%
D28*
%TO.C,R11*%
X149720000Y-105790000D03*
X149720000Y-103790000D03*
%TD*%
D31*
%TO.C,C6*%
X134865000Y-122180000D03*
X134865000Y-124255000D03*
%TD*%
M02*
